# xmcd CD database file
#
# Track frame offsets:
#	187
#	22527
#	45470
#
# Disc length: 903 seconds
#
# Revision: 1
# Processed by: cddbd v1.5.1PL2 Copyright (c) Steve Scherf et al.
# Submitted via: CDex 1.51
#
DISCID=11038503
DTITLE=森口博子＆Dual Dream - Let's Go
DYEAR=1994
DGENRE=JPop
TTITLE0=Let's Go
TTITLE1=明日元気になあれ
TTITLE2=Let's Go(オリジナル・カラオケ)
EXTD=YEAR: 1994
EXTT0=
EXTT1=
EXTT2=
PLAYORDER=
